<?xml version="1.0" encoding="UTF-8"?>
<!-- Created with Inkscape (http://www.inkscape.org/) -->
<svg width="288mm" height="104mm" version="1.1" viewBox="0 0 1088.5 393.07" xml:space="preserve" xmlns="http://www.w3.org/2000/svg"><defs><clipPath id="clipPath55"><path d="M 0,595.28 H 841.89 V 0 H 0 Z"/></clipPath></defs><g transform="matrix(1.3333 0 0 -1.3333 0 793.71)"><g transform="matrix(1.0789 0 0 1.0789 -35.541 15.495)" fill="#fff"><g clip-path="url(#clipPath55)" fill="#fff"><g transform="translate(364.47 386.57)"><path d="m0 0c0-0.365-0.025-0.646 5e-3 -0.921 0.063-0.565 0.155-1.064 0.824-1.33 0.475-0.19 0.824-0.678 1.266-0.977 0.748-0.505 1.464-1.096 2.491-0.917 0.311 0.054 0.692 0.151 1.001-0.17 0.088-0.092 0.369-0.043 0.545 4e-3 0.765 0.208 1.54 0.431 2.327 0.404 0.95-0.032 1.799 0.136 2.595 0.673 0.359 0.243 0.812 0.342 1.201 0.546 0.297 0.155 0.614 0.326 0.832 0.57 0.831 0.925 1.943 1.424 2.973 2.048 1.619 0.981 3.086 2.105 3.787 3.968 0.089 0.239 0.225 0.511 0.423 0.651 0.709 0.501 0.811 1.191 0.734 1.972-0.028 0.276-0.115 0.635 0.017 0.819 0.329 0.458 0.041 0.829 0.021 1.251-0.028 0.575-0.348 0.858-0.689 1.156-0.343 0.299-0.747 0.499-1.244 0.45-0.458-0.046-0.907 0.153-1.335 0.181-0.367 0.024-0.757-0.412-1.152-0.615-0.127-0.065-0.303-0.049-0.456-0.048-1.047 0.013-2.061-0.401-3.121-0.245-0.107 0.016-0.241-2e-3 -0.331-0.056-0.355-0.215-0.693-0.408-1.139-0.436-0.403-0.024-0.809-0.164-1.207-0.252-0.856-0.19-1.748-0.286-2.526-0.806-0.542-0.363-1.172-0.682-1.804-0.801-0.8-0.15-1.332-0.665-1.944-1.077-0.858-0.577-1.538-1.376-2.41-1.949-0.402-0.265-0.786-0.624-0.783-1.22 1e-3 -0.243-0.088-0.553-0.251-0.719-0.63-0.641-0.666-1.427-0.65-2.154m-125.04 3.935c1e-3 -1.475 0.519-2.156 1.875-2.575 0.316-0.097 0.676-0.142 0.932-0.327 0.378-0.274 0.841-0.251 1.12-0.115 1.021 0.497 2.17 0.484 3.2 0.914 0.542 0.226 1.192 0.272 1.655 0.596 0.951 0.665 2.017 1.116 2.977 1.77 1.353 0.923 2.656 1.936 4.131 2.674 0.991 1.1 2.389 1.722 3.348 2.863 0.526 0.627 1.217 0.966 2.011 1.19s1.562 0.542 2.11 1.25c0.422 0.545 1.048 0.852 1.64 1.2 0.774 0.455 1.487 1.014 2.243 1.501 0.633 0.407 1.119 1.048 1.857 1.271 1.469 0.444 2.706 1.257 3.827 2.275 0.283 0.256 0.527 0.534 0.907 0.691 0.34 0.139 0.666 0.387 0.911 0.664 0.775 0.875 1.845 1.356 2.717 2.1 0.309 0.264 0.666 0.594 1.033 0.641 0.581 0.075 0.893 0.434 1.225 0.798 0.228 0.248 0.475 0.464 0.645 0.799 0.19 0.373 0.593 0.653 1.016 0.898 0.994 0.575 1.89 1.296 2.301 2.461 0.109 0.307 0.329 0.74 0.577 0.802 0.715 0.181 0.802 0.758 0.981 1.273 0.358 1.028 9e-3 1.827-0.972 2.359-0.067 0.036-0.111 0.113-0.171 0.165-0.426 0.369-0.894 0.302-1.298 0.019-0.537-0.377-1.144-0.593-1.757-0.635-0.582-0.039-1.104-0.219-1.647-0.365-0.179-0.049-0.361-0.141-0.537-0.133-0.787 0.037-1.455-0.289-2.132-0.622-0.674-0.33-1.357-0.671-2.144-0.575-0.436 0.053-0.744-0.102-1.019-0.435-0.273-0.331-0.568-0.682-1.09-0.524-0.925-0.539-2.2-0.316-2.909-1.332-0.037-0.053-0.128-0.093-0.195-0.095-1.027-0.041-1.962-0.646-3.022-0.483-0.848 0.13-1.474-0.244-2.039-0.847-0.363-0.387-0.775-0.813-1.251-0.992-0.773-0.29-1.354-0.831-1.947-1.321-0.584-0.484-1.153-0.81-1.903-0.916-0.344-0.048-0.796-0.236-0.957-0.505-0.409-0.688-1.103-0.96-1.675-1.415-1.104-0.879-2.374-1.512-3.375-2.567-0.668-0.705-1.521-1.329-2.518-1.643-0.426-0.134-0.821-0.332-1.161-0.659-0.471-0.453-0.973-0.883-1.508-1.255-0.18-0.125-0.284-0.272-0.419-0.399-0.905-0.86-1.681-1.842-2.718-2.59-0.812-0.585-1.155-1.654-1.768-2.464-0.038-0.051-9e-3 -0.156-4e-3 -0.235 0.041-0.754-0.421-1.312-0.97-1.596-0.606-0.314-0.758-0.905-1.174-1.314-0.102-0.1-0.125-0.284-0.23-0.376-0.604-0.527-0.843-1.179-0.729-1.864m-111.66-59.844c0.676 0 1.354-0.031 2.028 9e-3 0.645 0.038 1.287 0.142 1.928 0.236 0.139 0.021 0.259 0.142 0.398 0.187 0.456 0.149 0.98 0.19 1.359 0.448 0.468 0.32 0.999 0.282 1.486 0.455 0.803 0.284 1.661 0.462 2.51 0.549 0.542 0.055 1.006 0.277 1.51 0.404 0.324 0.081 0.595 0.272 0.926 0.366 0.879 0.252 1.731 0.614 2.567 0.992 1.24 0.561 2.455 1.176 3.685 1.759 0.132 0.062 0.302 0.037 0.441 0.087 0.693 0.247 1.485 0.369 2.044 0.796 0.678 0.517 1.44 0.788 2.19 1.075 0.339 0.13 0.687 0.267 1.023 0.412 1.438 0.622 2.614 1.641 3.797 2.625 0.791 0.658 1.575 1.283 2.477 1.799 0.726 0.415 1.444 0.988 1.919 1.664 0.994 1.415 2.19 2.625 3.408 3.825 0.295 0.291 0.67 0.5 0.989 0.768 0.33 0.277 0.601 0.638 0.96 0.86 0.647 0.401 1.116 0.888 1.239 1.668 0.033 0.212 0.096 0.484 0.246 0.603 0.679 0.545 0.98 1.363 1.518 2 0.398 0.471 0.66 0.993 0.852 1.561 0.311 0.92 0.564 1.854 1.317 2.565 0.281 0.265 0.489 0.68 0.575 1.061 0.164 0.73 0.429 1.405 0.704 2.097 0.341 0.856 0.692 1.701 1.09 2.532 0.237 0.496 0.538 1.011 0.584 1.538 0.089 1.025 0.349 2.024 0.561 3.008 0.206 0.957 0.636 1.884 0.806 2.877 0.197 1.153 0.697 2.253 0.57 3.461-0.089 0.856 0.41 1.659 0.24 2.525-7e-3 0.033 0.014 0.073 0.027 0.107 0.334 0.862 0.48 1.754 0.449 2.677-9e-3 0.278-0.046 0.566 6e-3 0.834 0.312 1.584 0.302 1.918 7e-3 3.385-0.066 0.327-0.061 0.749 0.096 1.021 0.226 0.392 0.092 0.618-0.1 0.932-0.208 0.342-0.49 0.553-0.858 0.536-0.764-0.034-1.519-0.019-2.299-0.164-0.822-0.154-1.47-0.404-1.972-1.02-0.399-0.49-0.972-0.535-1.499-0.713-0.244-0.082-0.506-0.129-0.733-0.244-0.757-0.383-1.513-0.772-2.247-1.196-0.328-0.189-0.587-0.494-0.905-0.702-0.465-0.304-1.023-0.497-1.419-0.867-0.468-0.439-1.157-0.344-1.589-0.804-0.093-0.099-0.266-0.12-0.394-0.191-0.55-0.306-1.092-0.627-1.649-0.918-0.105-0.055-0.32-0.06-0.393 9e-3 -0.234 0.221-0.39 0.157-0.589-0.043-0.548-0.548-1.088-1.097-1.738-1.543-0.333-0.228-0.622-0.361-1.017-0.454-0.558-0.132-1.338 0.014-1.544-0.855-0.047-0.197-0.291-0.424-0.493-0.496-0.783-0.277-1.426-0.788-2.134-1.189-0.641-0.362-1.292-0.892-1.972-0.951-0.844-0.073-1.36-0.601-2.028-0.908-0.1-0.046-0.208-0.079-0.316-0.101-0.884-0.18-2.677-0.93-3.347-1.42-0.723-0.529-1.494-0.976-2.309-1.341-0.401-0.18-0.877-0.203-1.215-0.516-0.519-0.482-1.181-0.61-1.827-0.776-0.398-0.103-0.851-0.081-1.2-0.265-0.401-0.212-0.713-0.589-1.063-0.896-0.06-0.052-0.107-0.12-0.17-0.167-0.928-0.695-1.789-1.506-3.059-1.554-0.317-0.012-0.709-0.112-0.928-0.318-0.783-0.733-1.694-1.271-2.587-1.838-0.881-0.558-1.715-1.25-2.672-1.609-1.093-0.41-2.046-0.947-2.844-1.771-0.564-0.582-1.235-1.003-1.944-1.362-0.64-0.325-1.222-0.717-1.792-1.152-0.622-0.472-1.296-0.883-1.976-1.269-0.93-0.529-1.636-1.276-2.223-2.147-0.156-0.23-0.307-0.359-0.587-0.472-1.555-0.627-2.596-1.967-3.907-2.939-0.291-0.215-0.427-0.628-0.693-0.891-0.295-0.291-0.629-0.57-0.996-0.755-0.574-0.291-0.965-0.77-1.413-1.194-0.142-0.135-0.278-0.374-0.43-0.385-0.467-0.035-0.484-0.412-0.66-0.692-0.251-0.401-0.385-0.886-0.98-1.039-0.241-0.063-0.532-0.376-0.63-0.785-0.098-0.414-0.378-0.808-0.653-1.152-0.532-0.666-1.124-1.284-1.675-1.936-0.267-0.315-0.51-0.65-0.509-1.1 4e-3 -1.431-4e-3 -2.863 9e-3 -4.294 2e-3 -0.176 0.07-0.374 0.168-0.522 0.514-0.779 1.119-1.498 1.499-2.363 0.038-0.086 0.127-0.163 0.211-0.213 0.414-0.245 0.822-0.506 1.255-0.714 1.194-0.571 2.411-1.095 3.595-1.685 0.56-0.28 1.064-0.68 1.668-0.868 0.573-0.179 1.178-0.25 1.759-0.378 0.852-0.187 1.682-0.426 2.566-0.418 1.232 0.012 2.465 6e-3 3.697 1e-3 0.231-1e-3 0.514 0.044 0.683-0.068 0.521-0.346 1.164-0.285 1.583-0.115 0.556 0.226 1.069 0.102 1.592 0.185 0.523 0.082 1.045 0.194 1.572 0.23 0.593 0.04 1.192 9e-3 1.788 9e-3m471.03 69.403c0 0.597-0.035 1.196 0.011 1.789 0.038 0.487-0.155 0.973 0.188 1.477 0.258 0.38-0.12 0.955 0.245 1.453 0.19 0.259 0.051 0.772 0.029 1.168-0.028 0.498-0.443 0.762-0.891 0.515-0.524-0.288-1.005-0.656-1.493-1.005-0.16-0.114-0.259-0.343-0.429-0.407-1.397-0.528-2.275-1.77-3.498-2.513-0.592-0.36-1.155-0.792-1.441-1.319-0.382-0.703-1.007-0.879-1.591-1.09-0.583-0.21-1.154-0.513-1.818-0.536-0.248-9e-3 -0.535-0.303-0.716-0.536-0.433-0.557-1.036-0.787-1.677-0.844-0.365-0.032-0.582-0.181-0.789-0.415-0.485-0.547-1.066-0.76-1.813-0.837-0.874-0.089-1.781-0.279-2.436-1.013-0.631-0.708-1.533-0.764-2.387-0.841-0.416-0.037-0.723-0.116-1.03-0.42-0.869-0.86-1.887-1.533-2.866-2.259-0.89-0.66-1.812-1.165-2.829-1.552-0.415-0.159-0.786-0.408-1.166-0.651-1.339-0.852-2.7-1.669-4.269-2.075-0.487-0.127-0.927-0.448-1.377-0.702-0.726-0.409-1.478-0.714-2.33-0.72-0.138-1e-3 -0.282-0.083-0.411-0.152-0.49-0.259-0.956-0.694-1.465-0.751-0.563-0.063-0.972-0.384-1.457-0.554-0.248-0.087-0.471-0.197-0.747-0.211-0.964-0.049-1.925 0.104-2.893-0.207-0.739-0.237-1.503 0.12-2.226 0.341-0.424 0.13-0.793 0.151-1.217-7e-3 -0.314-0.116-0.742-0.221-1.014-0.098-1.075 0.484-2.34 0.611-3.15 1.632-0.175 0.222-0.473 0.421-0.746 0.476-1.29 0.261-2.152 1.078-2.78 2.145-0.311 0.529-0.478 1.158-0.631 1.761-0.139 0.549-0.159 1.127-0.257 1.687-0.045 0.251-0.206 0.488-0.222 0.738-0.035 0.555-0.011 1.113-0.011 1.67 0.534 0.34 0.074 0.938 0.381 1.402 0.267 0.404 0.279 1.003 0.322 1.524 0.041 0.487 0.227 0.86 0.552 1.209 0.863 0.925 1.48 2.005 2.123 3.533 0.129 0.305 0.346 0.597 0.588 0.826 0.815 0.77 1.299 1.784 2.003 2.634 0.298 0.36 0.629 0.694 0.942 1.042 0.381 0.423 0.539 0.873 0.382 1.068-0.227 0.281-0.814 0.37-1.29 0.164-0.338-0.146-0.695-0.285-0.979-0.51-1.327-1.049-2.845-1.796-4.238-2.74-1.109-0.751-2.301-1.217-3.68-1.219-0.54-1e-3 -1.132-0.169-1.499-0.674-0.31-0.428-0.724-0.57-1.228-0.494-0.41 0.061-0.762-0.134-1.038-0.362-0.429-0.354-0.885-0.501-1.422-0.629-0.627-0.151-1.199-0.554-1.775-0.883-0.326-0.186-0.59-0.488-0.924-0.655-0.324-0.163-0.624-0.395-1.054-0.349-0.811 0.087-1.491-0.29-2.02-0.854-0.887-0.947-2.094-1.264-3.217-1.752-0.101-0.043-0.238-0.017-0.355-4e-3 -0.654 0.074-1.134-0.246-1.681-0.566-0.816-0.478-1.737-0.799-2.644-1.09-0.707-0.226-1.415-0.507-2.183-0.495-0.506 8e-3 -0.863-0.29-1.161-0.644-0.312-0.369-0.692-0.596-1.158-0.668-1.336-0.205-2.442-1.031-3.733-1.362-0.676-0.172-1.354-0.385-1.983-0.68-0.703-0.329-1.353-0.769-2.022-1.168-0.257-0.153-0.482-0.397-0.757-0.475-1.255-0.355-2.262-1.134-3.267-1.899-0.493-0.375-0.992-0.557-1.587-0.496-0.537 0.054-0.973-0.045-1.359-0.491-0.319-0.369-0.749-0.651-1.156-0.934-0.364-0.253-0.741-0.535-1.155-0.658-0.4-0.12-0.857-0.079-1.287-0.062-0.57 0.024-1.058-0.128-1.443-0.553-0.477-0.526-1.067-0.736-1.761-0.643-0.553 0.074-0.985-0.073-1.338-0.531-0.282-0.366-0.675-0.573-1.148-0.677-0.73-0.161-1.42-0.427-2.185-0.516-0.579-0.068-1.222-0.309-1.762-0.602-1.086-0.59-2.358-0.625-3.43-1.236-0.15-0.086-0.388-0.02-0.586-0.02-0.875-1e-3 -1.75 0-2.625-1e-3 -0.352-1e-3 -0.636 0.053-0.958 0.303-0.477 0.37-1.1 0.202-1.664 0.068-0.105-0.026-0.25-0.155-0.295-0.122-0.648 0.46-1.376 0.211-2.056 0.207-0.823-5e-3 -1.602 0.08-2.299 0.513-0.208 0.129-0.379 0.272-0.626 0.222-0.877-0.177-1.661 0.2-2.417 0.505-0.853 0.343-1.712 0.76-2.408 1.374-0.916 0.808-1.419 1.934-2.031 2.969-0.053 0.091-0.04 0.222-0.053 0.335-0.08 0.723-0.128 1.451-0.25 2.166-0.08 0.469-0.355 0.887-0.512 1.34-0.206 0.59-0.257 1.08-0.021 1.635 0.058 0.135 0.069 0.3 0.063 0.45-0.038 1.04 0.178 2.03 0.457 3.03 0.203 0.728 0.171 1.52 0.268 2.28 0.051 0.408 0.218 0.81 0.216 1.214-2e-3 0.436 0.138 0.814 0.248 1.216 0.263 0.968 0.488 1.947 0.72 2.924 0.027 0.113-0.047 0.28 0.012 0.35 0.635 0.77 0.702 1.778 1.12 2.643 0.525 1.089 0.924 2.244 1.26 3.414 0.164 0.569 0.6 1.045 0.488 1.714-0.086 0.511-0.677 1.196-1.183 1.223-0.069 3e-3 -0.146-0.032-0.209-0.067-0.714-0.391-1.432-0.773-2.134-1.184-0.395-0.232-0.766-0.459-1.261-0.425-0.554 0.038-1.115-0.021-1.669 0.017-0.543 0.038-0.981-0.051-1.353-0.506-0.298-0.364-0.743-0.48-1.235-0.465-0.914 0.029-1.83-9e-3 -2.744 0.015-0.494 0.013-0.885-0.077-1.245-0.476-0.546-0.605-1.241-0.986-2.1-0.966-0.11 3e-3 -0.242-5e-3 -0.329-0.062-0.76-0.499-1.616-0.382-2.455-0.422-0.447-0.021-0.918 0.163-1.353-0.205-0.137-0.116-0.531-7e-3 -0.768 0.092-0.501 0.21-0.934 0.171-1.407-0.105-0.513-0.298-1.06-0.512-1.548-0.884-0.689-0.524-1.518-0.743-2.405-0.819-0.682-0.059-1.349-0.296-2.051-0.217-0.039 4e-3 -0.098 0.018-0.117-2e-3 -0.912-0.979-2.207-0.636-3.296-0.982-0.945-0.3-1.894-0.612-2.824-0.955-0.38-0.14-0.728-0.207-1.106-0.205-0.958 7e-3 -1.866-0.153-2.806-0.409-0.856-0.234-1.741-0.377-2.571-0.727-0.135-0.057-0.303-0.068-0.452-0.056-1.166 0.097-2.224-0.369-3.322-0.625-0.108-0.025-0.212-0.089-0.319-0.091-0.517-9e-3 -1.036 0.027-1.55-0.013-0.488-0.038-0.969-0.213-1.453-0.215-0.703-2e-3 -1.369-9e-3 -1.959-0.481-0.189-0.15-0.486-0.246-0.727-0.233-0.439 0.024-0.828-0.095-1.213-0.258-0.506-0.213-1.031-0.254-1.573-0.239-1.127 0.029-2.223-0.399-3.361-0.235-0.494-0.366-1.148-0.233-1.672-0.581-0.7-0.464-1.507-0.714-2.367-0.607-0.834 0.104-1.583-0.141-2.295-0.513-0.473-0.248-0.941-0.457-1.486-0.45-0.152 2e-3 -0.311-8e-3 -0.455-0.052-2.116-0.638-2.975-0.968-4.4-0.917-0.639 0.023-1.316-0.048-1.921-0.244-0.812-0.263-1.658-0.372-2.464-0.669-0.65-0.24-1.182-0.593-1.526-1.14-0.327-0.521-0.472-1.154-0.741-1.716-0.303-0.633-0.566-1.316-1.008-1.841-0.595-0.706-0.883-1.556-1.304-2.336-0.436-0.807-0.894-1.568-1.536-2.228-0.456-0.468-0.915-0.957-1.25-1.511-0.232-0.383-0.558-0.516-0.893-0.713-0.547-0.321-1.145-0.61-1.582-1.051-0.462-0.467-1.053-0.63-1.592-0.778-0.483-0.132-0.9-0.32-1.336-0.537-0.458-0.228-0.879-0.587-1.468-0.507-0.192 0.026-0.408-0.147-0.616-0.221-0.633-0.227-1.327-0.175-1.954-0.467-0.465-0.216-1.06-0.219-1.451-0.512-0.829-0.621-1.858-0.263-2.705-0.688-0.064-0.032-0.161-0.02-0.236-2e-3 -0.401 0.098-0.855 0.459-1.193 0.208-0.423-0.314-0.866-0.06-1.226-0.229-0.561-0.262-1.127-0.202-1.7-0.22-0.884-0.03-1.733 0.141-2.562 0.438-0.105 0.038-0.231 0.05-0.342 0.035-1.256-0.168-2.471 0.328-3.719 0.238-0.777-0.055-1.292 0.534-1.951 0.772-0.547 0.197-1.043 0.602-1.487 0.997-0.357 0.318-0.714 0.61-0.825 1.213-0.112 0.613-0.716 1.1-0.981 1.729-0.102 0.242-0.142 0.34-0.018 0.597 0.157 0.326 0.095 0.75 0.202 1.109 0.262 0.883 0.643 1.737 0.833 2.632 0.194 0.917 0.768 1.451 1.476 1.936 0.469 0.322 0.978 0.623 1.353 1.038 1.196 1.326 2.613 2.331 4.252 3.004 1.291 0.531 2.622 0.967 3.936 1.442 0.45 0.163 0.894 0.351 1.355 0.471 0.723 0.187 1.454 0.343 2.188 0.48 1.003 0.187 1.99 0.424 3.019 0.519 1.138 0.106 2.253 0.493 3.373 0.771 0.255 0.063 0.509 0.12 0.769 0.144 0.574 0.053 0.726 0.194 0.728 0.793 3e-3 1.148 0.129 2.317-0.472 3.383 0.066 0.976-0.516 1.794-0.674 2.693s-0.561 1.712-0.711 2.567c-0.184 1.047-0.633 1.981-0.878 2.987-0.186 0.757-0.344 1.518-0.594 2.261-0.201 0.596-0.402 1.21-0.465 1.83-0.062 0.613-0.165 1.177-0.456 1.728-0.116 0.218-0.039 0.541-0.041 0.816-3e-3 0.597-0.023 1.194 6e-3 1.789 0.023 0.45-0.355 0.593-0.594 0.819-0.071 0.067-0.379-0.129-0.585-0.185-0.463-0.127-0.801-0.552-1.348-0.513-0.183 0.013-0.426-0.166-0.567-0.325-0.497-0.558-1.174-0.783-1.812-1.105-0.697-0.352-1.443-0.721-1.965-1.274-0.903-0.956-2.014-1.416-3.204-1.808-0.239-0.079-0.408-0.353-0.645-0.458-1.311-0.584-2.625-1.156-3.9-1.823-0.442-0.231-0.982-0.262-1.471-0.48-0.375-0.168-0.733-0.349-1.074-0.571-0.501-0.325-1.044-0.534-1.606-0.734-0.446-0.159-0.858-0.465-1.226-0.774-0.927-0.779-1.926-1.482-3.004-1.978-0.954-0.44-1.798-1.031-2.71-1.52-0.909-0.489-1.839-0.942-2.741-1.444-0.265-0.148-0.474-0.403-0.698-0.62-0.615-0.596-1.304-0.952-2.19-1.073-0.789-0.108-1.622-0.366-2.209-0.963-0.541-0.55-1.224-0.789-1.901-0.879-0.702-0.093-1.116-0.486-1.271-1.014-0.187-0.633-0.513-0.785-1.1-0.974-0.871-0.28-1.741-0.642-2.426-1.371-0.412-0.439-1.019-0.753-1.71-0.744-0.207 2e-3 -0.412-0.158-0.626-0.203-0.582-0.121-1.075-0.498-1.701-0.517-0.415-0.013-0.878-0.222-1.035-0.596-0.181-0.429-0.511-0.506-0.84-0.57-1.094-0.214-2.094-0.574-2.877-1.423-0.35-0.38-1.713-1.098-2.13-1.182-0.102-0.02-0.218 4e-3 -0.322 0.029-0.215 0.051-0.557 0.23-0.619 0.159-0.301-0.346-0.804-0.151-1.117-0.541-0.379-0.47-0.919-0.812-1.401-1.195-0.173-0.137-0.369-0.261-0.575-0.336-2.355-0.868-3.305-1.517-4.845-2.705-0.549-0.424-1.099-0.783-1.863-0.712-0.394 0.036-0.948-1e-3 -1.186-0.244-0.8-0.817-2.049-0.734-2.846-1.552-0.244-0.25-0.812-0.151-1.152-0.348-0.682-0.395-1.403-0.663-2.155-0.85-1.043-0.26-1.918-0.969-3.004-1.103-0.421-0.42-1.098 0.08-1.498-0.417-0.675 0.174-1.275-0.222-1.928-0.257-0.472-0.025-0.944-0.178-1.339-0.502-0.356-0.29-0.767-0.539-1.248-0.425-0.534 0.127-0.959-0.218-1.453-0.256-0.449-0.035-0.884 0.08-1.354-0.196-0.414-0.242-0.999-0.031-1.405 0.257-0.29 0.206-0.402 0.153-0.684-0.014-0.651-0.383-1.435-0.358-2.322-0.122-0.294 0.078-0.616 0.098-0.92 0.076-0.866-0.062-1.638 0.203-2.377 0.608-0.649 0.356-1.341 0.599-2.04 0.837-1.446 0.492-2.592 1.387-3.391 2.696-0.111 0.181-0.1 0.433-0.179 0.64-0.33 0.862-0.824 1.604-1.507 2.244-0.916 0.859-1.514 2.447-1.737 3.697-0.172 0.968-0.259 2.01-0.967 2.816-0.094 0.106-0.189 0.26-0.19 0.393-5e-3 1.046-0.101 2.101 0.231 3.122 0.31 0.954 0.337 1.005 0.059 1.856-0.234 0.715 0.045 1.363 0.227 2.006 0.229 0.806 0.454 1.602 0.427 2.445-0.027 0.832-0.691 1.211-1.398 0.732-0.54-0.366-1.086-0.811-1.433-1.348-0.329-0.51-0.733-0.829-1.212-1.149-0.695-0.462-1.394-0.945-1.986-1.525-0.453-0.445-0.996-0.736-1.53-0.935-0.627-0.234-1.161-0.523-1.622-0.987-0.546-0.551-1.07-1.131-1.758-1.517-0.256-0.144-0.519-0.36-0.79-0.38-1.022-0.075-1.754-0.774-2.635-1.142-0.034-0.015-0.052-0.068-0.086-0.081-1.866-0.731-3.113-2.292-4.669-3.438-0.514-0.378-1.066-0.745-1.767-0.922-0.646-0.163-1.185-0.777-1.752-1.215-0.25-0.193-0.429-0.482-0.687-0.659-0.236-0.163-0.539-0.229-0.806-0.35-0.268-0.122-0.615-0.161-0.681-0.531-0.082-0.453-0.394-0.565-0.776-0.502-0.588 0.097-0.832-0.228-1.009-0.706-0.076-0.205-0.279-0.374-0.32-0.581-0.123-0.623-0.645-0.944-1.101-1.044-1.083-0.238-1.751-1.017-2.551-1.637-0.299-0.232-0.605-0.456-0.914-0.674-0.089-0.062-0.203-0.136-0.3-0.13-1.212 0.075-2.233-0.557-3.335-0.886-0.318-0.095-0.626-0.281-0.945-0.298-0.524-0.026-0.945-0.194-1.337-0.538-0.346-0.303-0.757-0.472-1.25-0.439-0.773 0.051-1.433-0.375-2.137-0.597-0.66-0.208-1.3-0.355-2-0.37-0.842-0.018-1.722 0.252-2.527-0.22-0.608 0.164-1.332 0.177-1.793 0.532-0.48 0.368-1.072 0.382-1.497 0.73-0.424 0.348-0.889 0.505-1.388 0.698-0.859 0.331-1.516 0.956-1.803 1.928-0.283 0.957-0.551 1.893-0.473 2.91 0.055 0.711 0.055 1.434 2e-3 2.146-0.105 1.401 0.189 2.718 0.668 4.022 0.217 0.59 0.236 1.252 0.449 1.844 0.295 0.821 0.789 1.537 1.418 2.157 0.683 0.675 1.337 1.353 1.806 2.23 0.306 0.57 0.922 0.975 1.402 1.451 1.066 1.054 2.061 2.196 3.497 2.792 0.135 0.056 0.27 0.198 0.333 0.333 0.341 0.727 1.026 1.09 1.578 1.604 0.707 0.657 1.51 1.153 2.351 1.554 0.534 0.255 0.996 0.538 1.39 0.959 0.422 0.449 0.907 0.77 1.479 1.036 0.805 0.373 1.535 0.908 2.292 1.382 0.209 0.132 0.286 0.783 0.115 0.908-0.054 0.04-0.156 0.062-0.217 0.039-0.415-0.149-0.871-0.244-1.227-0.485-0.981-0.665-2.153-0.763-3.222-1.156-0.517-0.19-1.12-0.094-1.694-0.202-0.672-0.127-1.304-0.284-1.946-0.517-0.411-0.149-0.837-0.359-1.326-0.266-1.062 0.203-1.932-0.333-2.721-0.895-0.611-0.435-1.352-0.398-1.955-0.769-1.174 0.1-2.154-0.573-3.243-0.814-0.105-0.023-0.208-0.146-0.298-0.132-0.958 0.147-1.746-0.409-2.617-0.59-0.878-0.183-1.71-0.544-2.616-0.625-0.475-0.042-0.939-0.217-1.406-0.339-0.106-0.028-0.208-0.126-0.306-0.118-1.074 0.088-1.943-0.444-2.861-0.878-0.764-0.361-1.572-0.627-2.408-0.822-0.415-0.096-0.847-0.192-1.252-0.431-0.699-0.413-1.506-0.596-2.312-0.754-0.35-0.068-0.686-0.271-0.999-0.46-0.577-0.349-1.118-0.711-1.849-0.745-0.456-0.022-0.924-0.189-1.339-0.501-0.759-0.569-1.664-0.849-2.604-0.883-0.402-0.015-0.758-0.106-1.088-0.271-0.437-0.219-0.843-0.421-1.353-0.503-0.481-0.078-0.935-0.432-1.359-0.725-1.133-0.783-2.344-1.394-3.592-1.984-1.076-0.508-2.316-0.557-3.288-1.293-0.076-0.058-0.233-0.034-0.347-0.015-1.113 0.19-1.887-0.457-2.647-1.096-0.392-0.33-0.788-0.535-1.312-0.601-0.343-0.043-0.725-0.251-0.971-0.501-0.676-0.692-1.476-1.247-2.344-1.554-1.134-0.401-1.404-1.126-1.345-2.183 0.021-0.366 0.154-0.776-0.201-1.114-0.082-0.078 2e-3 -0.366 0.054-0.544 0.221-0.753 0.213-2.152-8e-3 -2.965-0.06-0.219-0.127-0.485-0.058-0.683 0.354-1.018 0.284-1.995 0.021-3.037-0.179-0.71-0.064-1.504-0.027-2.258 0.064-1.316-0.116-2.581-0.643-3.793-0.044-0.101-0.075-0.216-0.076-0.325-7e-3 -0.637 0.027-1.275-0.013-1.909-0.038-0.606-0.165-1.206-0.223-1.811-0.029-0.306-0.094-0.57-0.222-0.865-0.47-1.077-0.524-2.334-1.409-3.234-0.239-1.366-1.346-2.395-1.478-3.802-0.389-0.389-0.248-0.885-0.226-1.333 0.033-0.697-0.245-1.211-0.626-1.782-0.418-0.627-1.163-0.919-1.461-1.634-0.114-0.271-0.358-0.485-0.492-0.751-0.625-1.234-1.412-2.295-2.585-3.106-0.597-0.414-1.202-0.932-1.403-1.789-0.142-0.605-0.54-1.16-1.061-1.586-0.643-0.525-1.232-1.107-1.77-1.745-0.292-0.346-0.693-0.599-1.048-0.883-0.625-0.5-1.233-1.126-1.585-1.831-0.295-0.588-0.814-0.796-1.237-1.109-0.377-0.278-0.677-0.519-0.903-0.941-0.316-0.59-0.609-1.269-1.473-1.275-0.113-1e-3 -0.214-0.224-0.339-0.32-0.933-0.715-1.997-1.234-2.846-2.089-0.511-0.515-1.229-0.834-1.878-1.198-1.01-0.568-1.817-1.461-2.927-1.859-1.081-0.388-2.015-0.963-2.87-1.747-0.434-0.398-1.042-0.719-1.748-0.655-0.75 0.067-1.427-0.144-1.97-0.715-0.117-0.123-0.329-0.155-0.497-0.229-0.404-0.179-0.877-0.277-1.195-0.555-0.631-0.552-1.357-0.77-2.149-0.881-0.107-0.014-0.232-0.048-0.306-0.118-0.652-0.611-1.505-0.777-2.3-1.078-0.446-0.168-0.954-0.311-1.282-0.624-0.677-0.645-1.526-0.929-2.322-1.333-0.099-0.05-0.193-0.182-0.281-0.174-0.63 0.055-1.177-0.197-1.745-0.407-0.553-0.204-1.122-0.385-1.699-0.5-0.418-0.084-0.862-0.073-1.291-0.05-0.511 0.028-0.984-0.042-1.432-0.297-0.158-0.089-0.343-0.168-0.519-0.178-0.245-0.013-0.444-0.034-0.622-0.243-0.416-0.488-0.976-0.61-1.597-0.761-1.053-0.257-2.205-0.059-3.173-0.676-0.928 0.108-1.854-3e-3 -2.8 0.122-1.515 0.2-3.072 0.083-4.611 0.1-1.078-0.848-2.339-0.305-3.508-0.461-0.78 0.525-1.704 0.134-2.565 0.422-0.787 0.263-1.732 0.047-2.606 0.063-0.178 3e-3 -0.376 0.064-0.527 0.159-0.259 0.162-0.565 0.137-0.848 0.265-0.531 0.24-1.184 0.229-1.79 0.275-0.312 0.023-0.573 0.107-0.863 0.227-0.542 0.225-1.15 0.39-1.708 0.446-0.5 0.05-0.707 0.422-1.093 0.571-0.955 0.369-2.01 0.56-2.801 1.318-0.255 0.244-0.635 0.469-0.974 0.495-0.874 0.066-1.36 0.661-1.891 1.207s-1.206 0.99-1.365 1.82c-0.013 0.066-0.116 0.108-0.155 0.174-0.341 0.574-0.779 1.117-0.986 1.737-0.214 0.637-0.131 1.369-0.305 2.026-0.181 0.688-0.53 1.35-0.446 2.073 0.125 1.073 0.182 2.172 0.769 3.139 0.191 0.315 0.315 0.66 0.443 1.01 0.213 0.586 0.473 1.184 0.986 1.625 0.283 0.242 0.487 0.577 0.712 0.883 0.822 1.117 1.59 2.307 2.687 3.178 0.517 0.41 1.099 0.769 1.471 1.297 0.701 0.994 1.654 1.721 2.552 2.484 1.774 1.508 3.359 3.264 5.459 4.367 0.066 0.035 0.134 0.074 0.186 0.126 1.539 1.547 3.505 2.505 5.241 3.78 0.832 0.611 1.779 1.068 2.683 1.577 0.319 0.18 0.653 0.359 1.003 0.455 1.417 0.387 2.578 1.273 3.852 1.936 0.164 0.086 0.356 0.145 0.482 0.271 0.818 0.816 1.796 1.337 2.902 1.642 0.139 0.039 0.271 0.124 0.389 0.211 0.486 0.355 1.019 0.579 1.599 0.754 0.895 0.271 1.672 0.773 2.436 1.332 0.952 0.696 1.836 1.561 3.084 1.756 0.584 0.612 1.565 0.557 2.107 1.286 0.168 0.226 0.595 0.37 0.899 0.362 0.699-0.017 1.226 0.337 1.758 0.674 0.94 0.596 1.813 1.305 2.953 1.521 0.206 0.039 0.422 0.179 0.571 0.333 0.621 0.643 1.451 0.999 2.239 1.213 1.008 0.273 1.714 1.043 2.685 1.312 0.569 0.701 1.488 0.851 2.191 1.37 0.52 0.383 1.107 0.745 1.69 1.072 0.416 0.235 0.836 0.501 1.289 0.626 1.213 0.336 2.23 0.968 3.238 1.715 1.097 0.813 2.308 1.497 3.539 2.097 1.318 0.642 2.611 1.356 4.049 1.749 0.481 0.132 0.858 0.611 1.334 0.804 0.833 0.339 1.611 0.755 2.331 1.286 1.088 0.801 2.34 1.254 3.605 1.664 1.323 0.43 1.68 0.835 1.637 2.204-0.022 0.683 0.244 1.408-0.218 2.055-0.056 0.079-0.058 0.294 1e-3 0.343 0.561 0.467 0.132 1.017-0.043 1.344-0.65 1.207-0.835 2.609-1.631 3.744-0.038 0.054 0.019 0.194-0.021 0.225-1.191 0.913-1.578 2.409-2.537 3.482-0.326 0.366-0.791 0.603-1.151 0.943-0.665 0.627-1.27 1.321-1.954 1.926-0.743 0.658-1.544 1.25-2.326 1.863-0.428 0.335-0.992 0.28-1.482 0.446-0.81 0.276-1.577 0.599-2.35 0.964-0.758 0.36-1.616 0.511-2.432 0.749-0.833 0.244-1.667 0.524-2.545 0.466-0.556-0.037-1.052 0.215-1.573 0.229-0.515 0.014-0.94 0.254-1.413 0.356-0.143 0.031-0.28 0.142-0.417 0.136-1.043-0.048-1.994 0.445-3.022 0.512-0.219 0.014-0.454 0.204-0.738 0.223-0.685 0.044-1.386 0.074-2.043 0.248-0.608 0.161-1.294 0.201-1.809 0.51-0.983 0.592-1.86 0.358-2.686-0.16-0.5-0.314-0.979-0.39-1.521-0.371-0.619 0.02-1.16-0.113-1.74-0.417-0.871-0.455-1.838-0.809-2.804-0.978-0.836-0.146-1.534-0.54-2.289-0.831-0.446-0.172-0.859-0.439-1.313-0.57-0.322-0.092-0.704-0.097-1.032-0.023-1.087 0.249-1.154 0.176-2.338 0.011-0.776-0.108-1.612-0.265-2.401 0.166-0.963 0.527-1.131 1.159-0.428 1.973 0.535 0.621 1.211 1.003 2.028 1.15 1.244 0.223 2.466 0.533 3.56 1.194 0.498 0.301 1.087 0.414 1.596 0.425 0.671 0.015 1.315 0.16 1.917 0.328 0.587 0.165 1.298 0.09 1.767 0.617 1.197 0.161 2.236 0.741 3.298 1.255 0.432 0.209 0.85 0.455 1.255 0.714 0.976 0.626 1.877 1.417 2.927 1.867 1.188 0.51 2.147 1.335 3.248 1.95 0.098 0.055 0.195 0.124 0.271 0.206 0.939 1.027 2.161 1.602 3.381 2.207 0.875 0.434 1.663 1.015 2.432 1.647 1.258 1.034 2.501 2.097 3.874 2.997 0.739 0.484 1.348 1.167 2.024 1.751 0.466 0.402 0.887 0.928 1.43 1.155 1.212 0.507 1.895 1.454 2.535 2.509 0.315 0.519 0.762 0.956 1.133 1.443 0.182 0.24 0.423 0.403 0.562 0.72 0.156 0.355 0.569 0.62 0.913 0.866 0.537 0.385 1.03 0.792 1.299 1.419 0.354 0.822 1.018 1.475 1.717 1.873 0.728 0.414 0.962 1.02 1.275 1.641 0.174 0.344 0.615 1.269 0.789 1.462 0.887 0.983 1.623 2.063 2.108 3.302 0.201 0.514 0.414 1.024 0.586 1.547 0.177 0.534 0.243 1.111 0.391 1.634 0.207 0.731 0.087 1.523 0.44 2.197 0.346 0.661 0.51 1.388 0.811 2.05 0.229 0.506 0.078 1.02 0.323 1.541 0.313 0.663 0.371 1.481 0.294 2.264-0.044 0.454 7e-3 0.898-0.224 1.343-0.183 0.354-3e-3 0.791-0.187 1.233-0.21 0.51-0.065 1.167-0.072 1.76-0.01 0.92-0.205 1.786-0.713 2.569-0.08 0.122-0.096 0.347-0.194 0.385-0.818 0.312-1.101 1.14-1.675 1.679-0.909 0.854-2.039 1.38-3.178 1.822-0.819 0.319-1.62 0.724-2.528 0.839-0.233 0.029-0.506 0.127-0.766 0.134-0.557 0.016-1.117-0.03-1.67 0.013-0.942 0.075-1.78-0.146-2.636-0.562-0.796-0.386-1.676-0.624-2.597-0.648-0.917-0.023-1.754-0.419-2.47-0.923-0.677-0.477-1.321-1-2.088-1.315-0.743-0.307-1.345-0.824-1.961-1.295-0.646-0.494-1.245-0.953-2.101-1.015-0.299-0.022-0.682-0.246-0.845-0.497-0.381-0.588-0.996-0.906-1.436-1.41-0.514-0.588-1.14-1.003-1.828-1.353-0.299-0.152-0.679-0.328-0.805-0.596-0.211-0.447-0.573-0.721-0.87-1.071-0.169-0.2-0.332-0.379-0.449-0.648-0.366-0.836-1.049-1.487-1.764-1.996-1.19-0.845-2.105-1.917-2.979-3.047-0.16-0.206-0.27-0.455-0.443-0.649-0.806-0.903-1.663-1.764-2.43-2.699-0.528-0.645-1.02-1.336-1.485-2.017-0.412-0.604-1.111-0.797-1.465-1.388-0.645-0.077-0.909-0.64-1.048-1.093-0.224-0.728-0.838-1.149-1.155-1.79-0.133-0.268-0.522-0.417-0.807-0.6-0.376-0.24-0.761-0.496-0.703-0.997 0.063-0.547-0.297-0.844-0.65-1.013-0.879-0.421-1.165-1.224-1.511-2.014-0.491-1.121-0.98-2.225-1.708-3.242-0.467-0.652-1.172-1.098-1.485-1.879-0.274-0.681-0.664-1.316-0.999-1.972-0.188-0.369-0.346-0.726-0.359-1.171-0.017-0.593-0.273-1.156-0.578-1.661-0.461-0.761-0.729-1.61-1.149-2.392-0.395-0.737-0.589-1.582-0.883-2.376-0.051-0.137-0.156-0.253-0.237-0.378-0.346-0.531-0.689-1.025-0.799-1.708-0.096-0.59-0.342-1.192-0.597-1.772-0.235-0.535-0.167-1.197-0.283-1.793-0.054-0.282-0.176-0.581-0.355-0.801-0.548-0.673-0.893-1.458-1.326-2.195-0.42-0.716-0.647-1.501-0.89-2.256-0.226-0.706-0.582-1.353-0.783-2.07-0.185-0.663-0.613-1.255-0.863-1.905-0.304-0.791-0.612-1.579-0.802-2.416-0.153-0.675-0.384-1.369-0.748-1.949-0.544-0.864-0.757-1.839-1.135-2.756-0.338-0.82-0.53-1.691-0.8-2.534-0.245-0.768-0.351-1.578-0.81-2.291-0.416-0.645-0.67-1.391-1.026-2.077-0.483-0.931-0.735-1.941-0.919-2.953-0.07-0.387-0.205-0.722-0.361-1.05-0.305-0.644-0.605-1.27-0.643-2.008-0.016-0.311-0.2-0.631-0.365-0.915-0.546-0.943-0.709-2.015-1.043-3.028-0.265-0.808-0.486-1.628-0.975-2.341-0.433-0.632-0.762-1.276-0.721-2.097 0.027-0.558-0.015-1.183-0.242-1.679-0.629-1.367-0.656-2.793-0.715-4.247-0.043-1.053-0.296-2.096-0.455-3.144-0.486-0.285-0.126-0.85-0.432-1.267-0.228-0.31 0.051-0.946-0.063-1.394-0.336-1.314-0.09-2.652-0.259-3.958-0.078-0.603-0.18-1.203-0.209-1.814-7e-3 -0.134-0.126-0.263-0.195-0.394-0.421-0.806-1.065-1.373-1.829-1.861-0.388-0.248-0.69-0.251-1.066-0.089-0.637 0.273-1.301 0.345-1.995 0.392-0.721 0.049-1.473 0.101-2.158 0.261-0.671 0.157-1.217 0.74-1.588 1.414-0.301 0.545-0.525 1.073-0.477 1.718 0.047 0.633-0.02 1.274 0.02 1.907 0.031 0.487 0.144 0.97 0.23 1.453 0.087 0.483-0.233 1.03 0.232 1.458 0.04 0.037 0.019 0.156 4e-3 0.233-0.154 0.787 0.286 1.507 0.249 2.288-0.039 0.793 3e-3 1.59-0.012 2.386-0.015 0.771 0.188 1.504 0.508 2.175 0.162 0.341 0.174 0.65 0.22 0.987 0.039 0.291 0.133 0.578 0.233 0.856 0.337 0.942 0.288 1.923 0.22 2.884-0.131 1.851 0.308 3.664 0.281 5.51-9e-3 0.687 0.21 1.412 0.473 2.059 0.265 0.65 0.188 1.29 0.214 1.939 0.012 0.318-0.028 0.64 0.011 0.953 0.033 0.252 0.103 0.523 0.24 0.731 0.254 0.387 0.113 0.847 0.26 1.208 0.152 0.375 0.131 0.743 0.22 1.104 0.438 1.786 0.12 3.597 0.232 5.392 0.036 0.566 0.162 1.126 0.229 1.691 0.062 0.527-0.106 1.069 0.221 1.585 0.126 0.198 0.019 0.543 0.021 0.822 1e-3 0.27 0.102 0.497 0.2 0.751 0.267 0.69 0.527 1.405 0.517 2.174-8e-3 0.676-0.037 1.354 7e-3 2.027 0.054 0.827 0.18 1.646 0.425 2.445 0.078 0.254 0.048 0.545 0.041 0.818-0.021 0.77 0.096 1.493 0.355 2.238 0.209 0.602 0.289 1.39 0.07 1.958-0.212 0.55-0.141 0.92 0.051 1.376 0.1 0.237 0.22 0.486 0.233 0.735 0.06 1.123 0.306 2.222 0.274 3.362-0.034 1.197 0.165 2.398 0.204 3.599 0.04 1.232-0.072 2.473 0.045 3.695 0.054 0.571 0.127 1.182 0.352 1.752 0.122 0.309 0.099 0.69 0.083 1.036-0.042 0.891 0.093 1.74 0.433 2.568 0.17 0.414 0.096 0.873 0.244 1.327 0.245 0.748 0.226 1.588 0.276 2.392 0.037 0.594-0.106 1.223 0.042 1.78 0.13 0.491 0.263 1.008 0.397 1.495 0.242 0.876 0.248 1.829 0.272 2.752 0.025 0.921 0.135 1.811 0.454 2.68 0.076 0.21 0.027 0.466 0.036 0.701 0.019 0.509-0.128 1.117 0.101 1.502 0.278 0.469-0.154 1.06 0.371 1.41 0.037 0.024 0.015 0.153 4e-3 0.231-0.177 1.257 0.253 2.472 0.256 3.719 1e-3 0.602-0.147 1.203 0.188 1.829 0.252 0.471 0.043 1.097 0.221 1.688 0.218 0.73 0.079 1.576 0.044 2.37-0.034 0.778 0.132 1.514 0.402 2.224 0.176 0.464-0.1 1.02 0.322 1.417-0.177 0.983 0.285 1.908 0.25 2.885-0.034 0.917 0.662 2.933 1.291 3.505 0.545 0.497 1.276 0.783 1.854 1.25 1.032 0.833 2.226 0.714 3.411 0.698 0.136-2e-3 0.274-0.101 0.405-0.167 0.33-0.165 0.644-0.446 0.987-0.485 1.216-0.139 1.231-1.08 1.332-1.927 0.075-0.627-4e-3 -1.272 0.022-1.907 0.016-0.372-0.149-0.781 0.206-1.112 0.081-0.076-6e-3 -0.31 0.031-0.458 0.086-0.341-0.197-0.578-0.222-0.859-0.023-0.277 0.245-0.589 0.196-0.85-0.144-0.763-0.361-1.514-0.591-2.257-0.281-0.91-0.549-1.767-0.148-2.759 0.171-0.424 0.097-1.035-0.094-1.593-0.242-0.706-0.343-1.498-0.318-2.247 0.054-1.65-0.443-3.263-0.26-4.913-0.464-1.337-0.151-2.719-0.235-4.078-0.031-0.494 0.042-0.993-0.238-1.455-0.338-0.559-0.243-1.194-0.24-1.807 4e-3 -0.539-0.045-1.054-0.23-1.576-0.33-0.932-0.531-1.897-0.491-2.9 0.051-1.287-0.402-2.543-0.237-3.838-0.427-0.685-0.148-1.447-0.244-2.167-0.07-0.525 0.138-1.05-0.202-1.592-0.242-0.384 0.14-0.977-0.248-1.451-0.136-0.167-0.108-0.576-7e-3 -0.811 0.489-1.144 0.093-2.33 0.224-3.487-0.41-0.769-0.166-1.603-0.244-2.406-0.051-0.526-0.145-1.05-0.236-1.571-0.084-0.484 0.238-1.031-0.226-1.461-0.04-0.037-0.012-0.152-9e-3 -0.231 0.052-1.525-0.42-3.024-0.236-4.554 0.095-0.785-0.074-1.55-0.28-2.277-0.105-0.373-0.229-0.73-0.192-1.104 0.107-1.095-0.252-2.108-0.573-3.109-0.276-0.861-0.087-1.71-0.133-2.562-0.016-0.29 0.833-0.521 1.109-0.289 0.294 0.248 0.574 0.542 0.771 0.869 0.477 0.791 0.967 1.586 1.33 2.43 0.537 1.248 1.154 2.467 1.543 3.776 0.01 0.036-0.015 0.089 3e-3 0.117 0.839 1.331 1.242 2.824 1.704 4.309 0.302 0.973 0.881 1.859 1.319 2.792 0.312 0.666 0.601 1.338 0.818 2.05 0.134 0.442 0.225 0.919 0.594 1.315 0.305 0.327 0.514 0.85 0.549 1.302 0.074 0.977 0.583 1.746 0.964 2.592 0.756 1.675 1.661 3.276 2.267 5.029 0.268 0.774 0.705 1.537 1.101 2.284 0.383 0.723 0.799 1.449 1.325 2.068 0.356 0.418 0.267 1.07 0.811 1.344 0.358 0.897 0.96 1.618 1.602 2.325 0.346 0.382 0.658 0.839 0.836 1.318 0.314 0.846 1.032 1.383 1.472 2.132 0.419 0.716 0.959 1.372 1.509 1.998 0.576 0.656 1.311 1.184 1.829 1.878 1.037 1.388 2.508 2.414 3.308 3.993 0.897 0.605 1.069 1.793 1.942 2.416 0.244 0.174 0.412 0.41 0.725 0.548 0.353 0.156 0.634 0.57 0.845 0.931 0.617 1.056 1.213 2.11 2.36 2.706 0.202 0.105 0.344 0.327 0.51 0.498 1.028 1.058 2.107 2.05 3.335 2.884 0.536 0.363 0.933 0.91 1.507 1.263 0.706 0.435 1.349 0.973 2.022 1.463 0.182 0.133 0.41 0.221 0.552 0.385 0.638 0.738 1.436 1.214 2.319 1.611 0.874 0.392 1.699 0.892 2.545 1.347 0.033 0.018 0.062 0.046 0.088 0.074 1.239 1.303 2.951 1.705 4.545 2.272 0.731 0.26 1.354 0.788 2.156 0.854 0.142 0.012 0.276 0.122 0.418 0.135 0.904 0.077 1.784 0.283 2.672 0.446 0.569 0.104 1.194 0.122 1.828-0.144 0.508-0.213 1.171-0.055 1.765-0.058 0.536-3e-3 1.05-0.026 1.58-0.218 0.696-0.252 1.457-0.351 2.169-0.543 0.841-0.226 1.736-0.35 2.522-0.814 0.534-0.316 1.133-0.522 1.707-0.77 1.32-0.571 3.012-1.447 3.628-2.192 1.217-1.472 2.583-2.832 3.52-4.512 0.261-0.469 0.315-1.069 0.398-1.619 0.067-0.448-2e-3 -0.896 0.229-1.341 0.184-0.354-0.171-0.864 0.235-1.215 0.022-0.02 0.022-0.071 0.023-0.108 0.046-1.48 0.431-2.951 0.213-4.431-0.071-0.482-0.246-0.953-0.212-1.456 0.036-0.541-0.329-0.999-0.265-1.574 0.051-0.47-0.341-0.931-0.212-1.45-0.585-0.855-0.474-1.831-0.474-2.785 0-0.244-0.069-0.42-0.223-0.629-0.486-0.662-0.925-1.36-1.355-2.061-0.111-0.182-0.096-0.436-0.181-0.639-0.412-0.983-0.835-1.961-1.263-2.937-0.261-0.595-0.648-1.102-1.09-1.579-0.689-0.742-1.55-1.329-2.033-2.258-0.12-0.23-0.323-0.425-0.411-0.664-0.449-1.22-1.319-2.036-2.42-2.663-0.233-0.133-0.395-0.389-0.596-0.581-1.195-1.136-2.245-2.426-3.614-3.374-0.153-0.107-0.306-0.218-0.472-0.299-1.64-0.795-3.211-1.697-4.735-2.704-0.628-0.416-1.329-0.809-2.045-1.089-0.33-0.129-0.619-0.335-0.702-0.559-0.312-0.848-1.115-1.122-1.729-1.603-0.43-0.338-1.038-0.47-1.422-0.843-0.362-0.352-0.843-0.516-1.2-0.547-0.52-0.046-0.85-0.298-1.228-0.534-1.126-0.704-2.202-1.464-3.231-2.318-0.803-0.667-1.868-1.023-2.828-1.493-0.394-0.193-0.84-0.286-1.226-0.493-0.575-0.309-0.488-1.25 0.06-1.42 0.848-0.264 1.638-0.728 2.566-0.72 0.993 8e-3 1.906-0.457 2.891-0.507 0.269-0.36 0.659-0.139 0.988-0.209 0.327-0.069 0.649-0.164 0.976-0.234 0.412-0.088 0.869 0.174 1.25-0.149 0.309-0.261 0.791 0.115 1.077-0.317 0.061-0.091 0.38 3e-3 0.576-0.016 0.724-0.072 1.497-0.021 2.156-0.269 0.899-0.338 1.775-0.718 2.716-0.936 0.165-0.038 0.275-0.278 0.431-0.397 0.238-0.183 0.48-0.457 0.744-0.489 0.949-0.114 1.736-0.628 2.606-0.92 0.59-0.199 1.257-0.153 1.8-0.561 0.357-0.268 0.825-0.426 1.106-0.751 0.311-0.36 0.7-0.449 1.09-0.567 1.181-0.356 2.117-1.069 3.066-1.839 1.389-1.126 2.596-2.489 4.22-3.326 0.269-0.138 0.472-0.424 0.677-0.666 0.296-0.348 0.565-0.719 0.848-1.078 0.259-0.329 0.672-0.523 0.778-0.994 0.03-0.136 0.286-0.225 0.444-0.328 0.356-0.233 0.738-0.428 0.71-0.966-9e-3 -0.161 0.115-0.357 0.23-0.493 0.681-0.81 1.071-1.853 1.821-2.567 0.502-0.477 1.164-1.088 2.105-0.561 0.39 0.219 1.056-0.078 1.407 0.308 0.42 0.462 1.034-0.059 1.399 0.397 2.299 0.694 4.499 1.634 6.594 2.798 0.85 0.473 1.772 0.72 2.658 1.077 0.988 0.397 2.057 0.582 2.977 1.173 0.267 0.172 0.67 0.123 0.953 0.279 0.551 0.304 1.18 0.413 1.679 0.886 0.341 0.322 0.941 0.484 1.436 0.508 1.152 0.055 2.201 0.392 3.23 0.866 0.165 0.076 0.371 0.125 0.548 0.104 0.717-0.083 1.375 0.212 1.932 0.522 1.289 0.717 2.668 1.073 4.076 1.409 0.748 0.179 1.463 0.494 2.19 0.756 0.526 0.19 1.061 0.325 1.612 0.435 1.242 0.247 2.491 0.46 3.718 0.802 0.82 0.229 1.599 0.654 2.492 0.631 0.204-5e-3 0.406 0.169 0.618 0.222 0.687 0.17 1.378 0.322 2.068 0.48 0.038 9e-3 0.085-0.011 0.119 3e-3 0.578 0.236 1.137 0.549 1.737 0.693 0.585 0.14 1.209-0.062 1.816 0.238 0.464 0.228 1.007 0.329 1.562 0.273 0.289-0.029 0.574 0.04 0.884 0.151 0.866 0.308 1.786 0.44 2.594 0.949 0.408 0.257 0.941 0.049 1.432 0.285 0.623 0.299 1.364 0.351 2.053 0.512 0.18 0.042 0.386 0.055 0.531 0.153 0.437 0.297 0.912 0.33 1.419 0.332 0.835 2e-3 1.594 0.357 2.377 0.593 1.104 0.333 2.202 0.698 3.355 0.819 0.248 0.026 0.417 0.147 0.623 0.233 0.339 0.142 0.719 0.201 1.088 0.249 0.374 0.048 0.784-0.087 1.093 0.245 1.291 0.064 2.423 0.667 3.617 1.062 0.421 0.139 0.85 0.254 1.28 0.366 0.111 0.029 0.267 0.051 0.352-4e-3 0.495-0.319 1.074-0.336 1.567-0.198 0.491 0.138 1.005 0.242 1.496 0.402 0.749 0.243 1.591 0.273 2.392 0.262 0.905-0.012 1.713 0.207 2.49 0.635 0.398 0.219 0.804 0.439 1.291 0.339 0.437-0.089 0.811 0.164 1.215 0.226 1.588 0.245 3.077 0.827 4.595 1.304 0.577 0.181 1.134 0.344 1.749 0.403 0.849 0.082 1.683 0.331 2.522 0.52 0.103 0.023 0.196 0.171 0.285 0.163 1.25-0.121 2.382 0.312 3.525 0.716 0.177 0.062 0.395-3e-3 0.593 0.01 0.805 0.053 1.606-0.078 2.421 0.198 0.407 0.138 0.993 0.236 1.458-0.166 0.167-0.145 1.253 0.206 1.442 0.458 0.883 1.17 2.224 1.748 3.356 2.586 0.668 0.495 1.507 0.759 2.274 1.116 0.133 0.062 0.295 0.112 0.435 0.095 1.132-0.136 2.238-0.354 3.056-1.25 0.147-0.161 0.192-0.422 0.349-0.564 0.507-0.459-0.012-1.106 0.376-1.651 0.288-0.405-8e-3 -1.011-0.252-1.509-0.21-0.427-0.354-0.886-0.426-1.378-0.108-0.733-0.275-1.472-0.547-2.156-0.107-0.272-0.161-0.517-0.143-0.771 0.079-1.09-0.271-2.091-0.584-3.103-0.054-0.177-0.133-0.359-0.133-0.539 0-0.843-0.252-1.634-0.491-2.425-0.144-0.478-0.253-0.944-0.243-1.454 0.02-0.99-0.439-1.911-0.484-2.897-0.344-0.218-0.169-0.569-0.226-0.862-0.056-0.29-0.213-0.57-0.222-0.857-0.019-0.692-0.232-1.323-0.488-1.95-0.221-0.542-0.258-1.108-0.246-1.691 0.023-1.113 0.171-2.258-0.035-3.332-0.255-1.332-0.141-2.646-0.19-3.966-0.027-0.729-0.068-1.461 0.224-2.171 0.302-0.733 0.161-1.57 0.485-2.305 0.134-0.303 0.272-0.603 0.399-0.909 0.113-0.271 0.327-0.563 0.294-0.82-0.08-0.632 0.274-1.102 0.522-1.583 0.287-0.556 0.813-0.897 1.494-0.895 1.233 4e-3 2.467-0.026 3.698 0.014 0.524 0.017 1.016 0.27 1.573 0.247 0.479-0.02 1.013 0.043 1.437 0.247 0.481 0.23 1.001 0.3 1.464 0.502 1.149 0.501 2.422 0.669 3.507 1.328 1.014-0.058 1.821 0.611 2.773 0.819 0.61 0.133 1.269 0.357 1.866 0.656 0.69 0.345 1.377 0.765 2.115 0.927 0.774 0.169 1.43 0.594 2.19 0.793 0.611 0.159 1.293 0.331 1.801 0.841 0.247 0.249 0.627 0.448 0.973 0.499 0.601 0.088 1.008 0.451 1.493 0.739 0.529 0.313 1.034 0.682 1.683 0.84 0.506 0.124 0.961 0.595 1.444 0.821 1.495 0.701 2.979 1.433 4.555 1.966 1.144 0.386 2.251 0.918 3.314 1.495 0.8 0.435 1.63 0.694 2.505 0.874 0.177 0.036 0.349 0.119 0.509 0.206 1.071 0.586 2.166 1.134 3.189 1.796 0.327 0.211 0.652 0.357 1.001 0.476 1.137 0.386 2.058 1.164 3.113 1.701 0.759 0.387 1.473 0.863 2.204 1.305 0.383 0.232 0.746 0.498 1.139 0.709 0.356 0.189 0.754 0.298 1.109 0.488 1.643 0.875 3.289 1.735 4.782 2.872 0.732 0.557 1.589 0.951 2.39 1.419 0.529-0.209 0.666 0.497 1.115 0.477 0.691 0.822 1.673 1.126 2.644 1.383 0.401 0.106 0.715 0.226 0.978 0.531 0.404 0.47 0.906 0.778 1.48 1.032 0.671 0.298 1.217 0.855 1.975 0.995 0.295 0.054 0.619 0.052 0.878 0.181 0.528 0.263 1.114 0.377 1.588 0.807 0.331 0.302 0.868 0.372 1.306 0.562 0.405 0.175 0.833 0.324 1.194 0.568 0.867 0.586 1.785 1.016 2.774 1.378 0.89 0.327 1.662 0.976 2.488 1.481 0.348 0.212 0.732 0.38 1.045 0.636 0.475 0.386 1.137 0.351 1.589 0.791 0.411 0.4 0.843 0.807 1.337 1.089 0.865 0.494 1.513 1.391 2.617 1.455 0.03 2e-3 0.056 0.052 0.086 0.079 0.938 0.848 2.249 0.925 3.283 1.582 0.434 0.276 0.934 0.45 1.364 0.731 0.406 0.266 0.882 0.347 1.286 0.675 0.465 0.377 1.132 0.501 1.705 0.75 0.405 0.176 0.824 0.337 1.193 0.572 0.986 0.627 0.993 0.631 1.7 1.776 0.615 0.994 1.482 1.497 2.644 1.463 0.698-0.02 1.125-0.493 1.185-1.194 0.047-0.542-0.039-0.99-0.511-1.346-1.099-0.827-1.582-2.121-2.356-3.197-0.174-0.241-0.272-0.559-0.488-0.744-0.627-0.534-0.7-1.323-0.907-2.013-0.134-0.447-0.177-0.96-0.256-1.444-0.084-0.518-0.031-1.048 0.196-1.577 0.261-0.605 0.541-1.227 0.699-1.852 0.163-0.648 0.296-1.31 0.524-1.937 0.543-1.492 0.934-3.055 2.034-4.293 0.262-0.295 0.501-0.69 0.561-1.069 0.157-1 0.768-1.768 1.241-2.591 0.724-1.259 1.313-2.736 1.413-3.954 0.024-0.29 0.107-0.593 0.239-0.852 0.42-0.828 0.44-1.778 0.898-2.618 0.263-0.482 0.635-0.728 0.995-0.773 0.553-0.068 1.156-0.202 1.726 0.105 0.219 0.117 0.534 0.117 0.794 0.085 1.298-0.16 2.568 0.141 3.835 0.284 1.127 0.126 2.23 0.46 3.386 0.456 0.316-1e-3 0.634 0.182 0.948 0.288 0.139 0.047 0.279 0.18 0.404 0.163 0.555-0.076 1.05 0.187 1.574 0.235 0.538 0.049 0.999 0.295 1.498 0.418 0.504 0.125 1.036 0.267 1.546 0.288 1.376 0.059 2.649 0.452 3.929 0.903 0.561 0.197 1.207 0.147 1.776 0.329 1.153 0.367 2.441 0.024 3.526 0.699 1.237-0.068 2.362 0.682 3.622 0.493 0.197-0.03 0.417 0.143 0.633 0.177 0.521 0.081 0.997 0.386 1.554 0.291 0.236-0.041 0.452 0.164 0.627 0.185 0.528 0.066 0.989 0.368 1.563 0.316 0.51-0.047 1.106 0.023 1.543 0.262 0.357 0.196 0.673 0.193 1.001 0.175 0.704-0.039 1.336 0.217 2.002 0.351 0.991 0.199 1.971 0.496 2.974 0.595 0.76 0.075 1.466 0.274 2.193 0.473 0.98 0.268 1.956 0.611 3.019 0.522 0.474-0.039 1.011 0.041 1.442 0.237 1.285 0.586 2.625 0.728 4.007 0.702 0.262-5e-3 0.493 0.022 0.764 0.176 0.85 0.482 1.837 0.574 2.782 0.755 0.335 0.064 0.71 0.041 0.962 0.268 0.508 0.457 1.16 0.166 1.741 0.42 0.726 0.316 1.578 0.372 2.342 0.68 0.205 0.083 0.453 0.069 0.682 0.081 0.68 0.037 1.315 0.261 1.948 0.483 0.804 0.282 1.594 0.566 2.439 0.756 1.112 0.251 2.351 0.105 3.325 0.882 0.798 0.089 1.596 0.229 2.395 0.247 0.439 0.01 0.865 0.066 1.202 0.278 0.469 0.296 1 0.348 1.489 0.43 1.26 0.213 2.452 0.768 3.755 0.744 0.249 0.447 0.726 0.119 1.065 0.315 0.314 0.182 0.677 0.285 1.026 0.397 0.353 0.113 0.812 0.089 1.053 0.312 0.43 0.397 1.059-0.134 1.397 0.399 0.887 0.135 1.646 0.653 2.514 0.844s1.702 0.54 2.493 0.891c0.737 0.327 1.539 0.55 2.217 0.981 1.043 0.662 2.174 0.703 3.318 0.611 0.495-0.04 0.973-0.322 1.448-0.52 0.062-0.025 0.037-0.218 0.093-0.309 0.304-0.493 0.353-1.061 0.439-1.604 0.095-0.603-0.099-0.877-0.738-0.86-0.878 0.023-1.449-0.4-1.998-0.974-0.119-0.124-0.333-0.246-0.49-0.231-0.748 0.076-1.276-0.383-1.862-0.705-0.034-0.018-0.053-0.061-0.086-0.082-0.455-0.283-1.052-0.277-1.292-0.978-0.183-0.532-0.241-1.084-0.431-1.608-0.381-1.054-0.605-2.151-0.778-3.257-0.424-0.275 0.069-0.889-0.422-1.138-0.093-1.03-0.509-1.922-1.077-2.78-0.233-0.352-0.368-0.86-0.33-1.278 0.08-0.882-0.401-1.603-0.554-2.413-0.129-0.679-0.578-1.314-0.632-1.989-0.086-1.071-0.813-1.949-0.782-3.028-0.395-0.399-0.201-0.902-0.188-1.346 0.023-0.748-0.222-1.401-0.485-2.074-0.281-0.719-0.498-1.465-0.717-2.207-0.054-0.183-0.077-0.431 4e-3 -0.588 0.359-0.703 0.247-1.451 0.21-2.174-0.048-0.941 0.345-1.776 0.498-2.666 0.05-0.293 0.232-0.483 0.556-0.485 0.357-2e-3 0.772-0.117 1.062 0.024 0.642 0.313 1.294 0.218 1.941 0.205 1.657-0.033 2.92 0.32 4.889 1.169 1.113 0.479 2.255 0.904 3.412 1.263 1.416 0.438 2.802 0.955 4.29 1.191 1.266 0.2 2.498 0.651 3.58 1.425 0.413 0.296 0.942 0.425 1.376 0.697 0.462 0.29 1.07 0.057 1.478 0.469 0.826-0.137 1.441 0.417 2.075 0.744 2.004 1.033 4.055 1.912 6.193 2.634 0.776 0.263 1.539 0.507 2.334 0.706 0.592 0.148 1.152 0.503 1.668 0.85 0.437 0.294 0.949 0.216 1.381 0.419 0.412 0.195 0.799 0.362 1.276 0.396 0.512 0.036 0.984 0.212 1.194 0.837 0.186 0.553 0.651 0.884 1.296 0.811 1.877-0.213 2.378 0.453 3.694 0.877 0.672 0.217 1.288 0.619 2.036 0.557 0.075-6e-3 0.173-0.011 0.224 0.029 1.251 0.966 2.971 0.966 4.174 2.023 0.238 0.209 0.666-0.072 0.818 0.332 0.705-0.134 1.198 0.365 1.783 0.593 0.555 0.216 1.153 0.329 1.574 0.828 0.124 0.148 0.4 0.242 0.604 0.236 0.633-0.017 1.079 0.292 1.508 0.702 0.213 0.204 0.488 0.468 0.743 0.478 0.529 0.019 0.935 0.296 1.34 0.526 0.388 0.22 0.913 0.154 1.197 0.597 0.057 0.088 0.283 0.059 0.428 0.099 0.285 0.077 0.642 0.083 0.837 0.262 0.627 0.576 1.41 0.821 2.145 1.176 0.434 0.208 0.902 0.429 1.222 0.768 0.347 0.368 0.703 0.46 1.151 0.416 0.564-0.054 1.021 0.127 1.475 0.483 1.267 0.992 2.838 1.4 4.249 2.12 1.093-0.119 1.913 0.574 2.807 0.997 0.83 0.394 1.66 0.668 2.576 0.703 0.178 7e-3 0.357 0.09 0.528 0.158 0.79 0.313 1.509 0.839 2.417 0.79 0.609 0.46 1.339 0.636 2.053 0.798 1.085 0.247 1.998 0.784 2.872 1.436 0.163 0.122 0.428 0.127 0.65 0.147 0.34 0.029 0.649 0.046 0.99 0.21 0.358 0.173 0.561 0.607 1.103 0.548 0.369-0.041 0.795 0.156 1.205 0.228 0.871 0.152 1.717 0.446 2.57 0.695 0.102 0.03 0.198 0.123 0.268 0.21 0.545 0.672 1.274 0.751 2.082 0.754 1.135 5e-3 2.241 0.234 3.332 0.577 0.603 0.19 1.214 0.443 1.881 0.366 0.196-0.023 0.397-4e-3 0.596-4e-3 0.676 0 1.354-0.03 2.028 9e-3 0.654 0.038 1.3-0.068 1.971 0.12 0.624 0.174 1.324 0.057 1.986 0.117 0.708 0.064 1.34-0.222 2.006-0.35 0.259-0.049 0.525-0.143 0.779-0.122 0.369 0.031 0.741 0.24 1.092 0.2 0.361-0.041 0.693-0.276 1.098-0.217 1.447 0.209 2.793-0.277 4.108-0.739 0.89-0.312 1.676-0.897 2.084-1.835 0.029-0.068 0.159-0.124 0.152-0.171-0.056-0.374 0.197-0.803-0.167-1.12-0.368-0.32-0.855-0.308-1.191-0.095-0.487 0.31-1.038 2e-3 -1.542 0.348-0.356 0.244-0.898 0.353-1.429 0.299-0.392-0.039-0.804 0.158-1.212 0.209-0.374 0.047-0.782-0.08-1.093 0.245-0.919-0.134-1.873 0.267-2.778-0.212-0.186-0.098-0.466-0.025-0.703-0.026-0.556-2e-3 -1.113-1e-3 -1.67-1e-3 -0.367-0.541-1.105 0.063-1.476-0.474-0.013-0.019-0.079-0.011-0.116-2e-3 -1.257 0.332-2.182-0.462-3.176-0.972-0.403-0.206-0.802-0.357-1.226-0.504-0.763-0.266-1.425-0.787-2.158-1.126-0.77-0.357-1.492-0.728-2.055-1.377-0.28-0.323-0.624-0.59-1.08-0.55-1.022 0.088-1.754-0.546-2.589-0.958-1.185-0.586-1.993-1.583-2.922-2.456-0.621-0.584-1.28-1.129-1.922-1.691-0.058-0.051-0.115-0.141-0.177-0.144-1.162-0.06-1.803-1.037-2.682-1.578-0.563-0.346-0.98-0.987-1.355-1.564-0.383-0.59-0.804-1.058-1.416-1.442-0.456-0.286-0.732-0.864-1.079-1.32-0.064-0.084-0.053-0.24-0.127-0.3-0.911-0.746-1.495-1.756-2.186-2.679-0.536-0.715-1.067-1.431-1.281-2.334-0.092-0.387-0.338-0.736-0.46-1.119-0.399-1.246-0.575-3.186-0.494-4.454 0.031-0.485 0.357-0.723 0.686-0.854 0.581-0.233 1.209-0.354 1.825-0.488 0.174-0.038 0.386 9e-3 0.559 0.074 0.792 0.297 1.576 0.612 2.362 0.924 0.136 0.054 0.267 0.177 0.4 0.177 1.471-9e-3 2.722 0.71 4.038 1.207 0.48 0.181 0.949 0.402 1.402 0.645 0.75 0.403 1.484 0.836 2.222 1.262 0.226 0.13 0.423 0.341 0.664 0.41 1.476 0.421 2.659 1.427 4.06 2.01 0.527 0.219 1.139 0.319 1.6 0.768 0.395 0.385 0.986 0.57 1.375 0.959 0.543 0.544 1.278 0.588 1.897 0.914 1.013 0.532 2.01 1.096 3.041 1.591 0.593 0.285 1.24 0.461 1.862 0.686 1.221 0.441 2.329 1.116 3.447 1.75 0.484 0.275 1.026 0.412 1.487 0.758 0.401 0.301 0.812 0.58 1.149 0.952 0.83 0.916 1.804 1.619 2.952 2.092 0.417 0.172 0.775 0.45 1.122 0.762 0.798 0.716 1.62 1.418 2.504 2.018 0.552 0.374 1.044 0.741 1.367 1.335 0.096 0.177 0.325 0.294 0.511 0.407 0.412 0.25 0.845 0.464 1.249 0.725 0.35 0.225 0.805 0.424 0.981 0.757 0.561 1.063 1.799 1.586 2.142 2.81 0.178 0.636 0.418 1.257 0.672 1.868 0.476 1.147 1.267 2.105 1.933 3.137 0.623 0.964 1.346 1.866 1.625 3.029 0.1 0.414 0.386 0.811 0.667 1.149 1.243 1.493 2.789 2.567 4.626 3.214 1.176-0.185 2.189 0.677 3.376 0.516 0.348-0.048 0.724 0.172 1.093 0.21 0.393 0.04 0.794 4e-3 1.192 0.01 0.704 0.01 1.233-0.238 1.507-0.936 0.094-0.239 0.259-0.455 0.417-0.662 0.48-0.627 0.591-1.29 0.274-2.027-0.072-0.168-0.072-0.372-0.083-0.561-0.08-1.452-0.483-2.772-1.333-3.99-0.409-0.585-0.557-1.353-0.815-2.041-0.168-0.448-0.221-0.981-0.502-1.335-0.424-0.534-0.776-1.039-0.696-1.75 8e-3 -0.072-1e-3 -0.164-0.04-0.219-0.559-0.779-0.676-1.71-0.954-2.592-0.192-0.612-0.188-1.264-0.445-1.841-0.263-0.591-0.515-1.171-0.467-1.835-0.433-0.355-0.15-0.926-0.434-1.38-0.215-0.343-0.017-0.93-0.054-1.404-0.019-0.25-0.168-0.488-0.224-0.738-0.34-1.506-0.583-3.022-0.482-4.574 0.034-0.543-0.021-1.042-0.376-1.521-0.231-0.311-0.356-0.719-0.357-1.165-3e-3 -0.564-0.062-1.154-0.238-1.686-0.312-0.948-0.297-1.844-7e-3 -2.798 0.143-0.473 0.022-1.027 0.025-1.544 9e-3 -1.657 1.119-2.758 2.785-2.779 0.415-5e-3 0.816 0.045 1.232-0.206 0.262-0.158 0.784-0.164 1.038-1e-3 0.529 0.339 1.072 0.239 1.587 0.191 1.144-0.108 2.231 0.349 3.363 0.258 0.825 0.452 1.782 0.441 2.655 0.792 1.017 0.409 2.07 0.765 3.116 1.119 1.051 0.355 2.099 0.707 3.172 1 0.573 0.156 1.208 0.258 1.768 0.632 0.496 0.331 1.198 0.349 1.807 0.515 0.747 0.203 1.434 0.568 2.187 0.781 0.544 0.154 1.135 0.241 1.668 0.592 0.456 0.301 1.049 0.569 1.673 0.547 0.84 0.743 1.944 0.872 2.924 1.292 0.506 0.217 1.098-0.106 1.528 0.358 0.085 0.092 0.309 0.044 0.417 0.128 1.017 0.789 2.334 0.938 3.392 1.589 0.428 0.263 0.917-0.01 1.282 0.412 0.25 0.288 0.671 0.494 1.052 0.59 0.762 0.193 1.366 0.739 2.146 0.884 0.2 0.037 0.357 0.274 0.549 0.397 0.531 0.339 1.038 0.681 1.699 0.808 0.6 0.115 1.174 0.396 1.745 0.676 0.717 0.353 1.319 0.939 2.218 1.006 0.627 0.048 1.246 0.427 1.832 0.728 0.832 0.427 1.69 0.738 2.608 0.911 0.359 0.068 0.721 0.187 1.045 0.352 1.321 0.671 2.72 1.119 4.127 1.564 0.984 0.311 2.033 0.417 2.952 0.936 0.255 0.144 0.54 0.232 0.804 0.363 0.495 0.246 0.964 0.561 1.481 0.741 0.489 0.171 1.035 0.131 1.539 0.319 0.349 0.13 1.645 0.603 1.94 0.792 1.004 0.645 2.112 1.08 3.257 1.341 0.8 0.182 1.585 0.438 2.417 0.539 0.749 0.092 1.462 0.478 2.189 0.739 0.138 0.049 0.272 0.179 0.402 0.172 1.32-0.074 2.501 0.45 3.712 0.841 0.069 0.022 0.125 0.116 0.188 0.117 0.806 0.017 1.638-0.1 2.378 0.311 0.667 0.37 1.489 0.186 2.12 0.647 0.026 0.018 0.078 5e-3 0.118 2e-3 1.318-0.1 2.54 0.304 3.76 0.714 0.036 0.012 0.08 7e-3 0.119 1e-3 1.1-0.182 2.148 0.345 3.242 0.239 0.622-0.06 1.202 0.199 1.802 0.284 1.4 0.199 2.253 0.28 3.868-0.041 0.153-0.03 0.32-0.021 0.476-1e-3 1.414 0.179 2.789-0.319 4.197-0.248 0.138 6e-3 0.28-0.085 0.422-0.126 0.503-0.144 0.974-0.356 1.527-0.365 0.602-9e-3 1.171-0.328 1.597-0.713 0.797-0.721 1.804-1.064 2.66-1.66 0.533-0.372 1.024-0.807 1.52-1.23 0.65-0.554 1.266-1.147 1.932-1.679 0.986-0.787 1.531-1.894 2.18-2.921 0.414-0.654 0.79-1.341 1.096-2.05 0.625-1.451 1.235-2.912 1.751-4.403 0.126-0.365 0.219-0.797 0.264-1.201 0.061-0.549 0.02-1.111 0.011-1.668-1e-3 -0.108-0.031-0.23-0.088-0.319-0.587-0.906-1.215-1.682-2.385-1.978-1.017-0.258-2.012-0.196-3.012-0.176-0.533 0.01-1.093 0.227-1.586 0.464-1.003 0.485-2.136 0.732-2.887 1.694-0.591 0.756-0.957 1.436-0.595 2.469 0.214 0.609 0.083 1.357 0.382 1.992 0.319 0.678 0.181 1.399 0.131 2.083-0.098 1.343-0.217 2.676-1.138 3.829-0.394 0.492-0.606 1.172-0.974 1.735-0.217 0.33-0.432 0.568-0.794 0.763-0.497 0.267-0.93 0.667-1.355 1.05-0.569 0.512-1.296 0.717-1.946 1.071-0.126 0.068-0.316 0.031-0.429 0.111-0.828 0.59-1.757 0.651-2.732 0.626-0.482-0.013-1.022 0.036-1.439 0.248-0.577 0.293-1.063 0.163-1.637 0.069-0.793-0.13-1.536-0.297-2.192-0.781-0.078-0.058-0.227-0.028-0.343-0.029-0.596-2e-3 -1.193-0.013-1.789 3e-3 -0.58 0.015-1.093-0.406-1.691-0.243-0.422 0.116-0.763-0.133-1.047-0.343-0.758-0.56-1.675-0.73-2.52-0.801-1.234-0.104-2.458-0.447-3.716-0.293-0.348 0.043-0.655-5e-3 -0.949-0.312-0.566-0.59-1.275-0.894-2.135-0.895-0.52-1e-3 -1.018-0.258-1.572-0.239-0.481 0.017-0.969-0.131-1.451-0.224-0.14-0.027-0.286-0.092-0.401-0.178-0.468-0.349-0.983-0.567-1.57-0.527-0.805 0.054-1.479-0.13-2.108-0.702-0.484-0.44-1.149-0.676-1.7-1.052-0.576-0.394-1.281-0.332-1.901-0.6-0.324-0.141-0.698-0.245-1.021-0.413-0.982-0.508-2.065-0.805-2.971-1.488-0.261-0.197-0.655-0.385-1.069-0.289-0.244 0.057-0.421-0.066-0.623-0.229-0.634-0.509-1.35-0.762-2.203-0.744-0.711 0.014-1.445-0.11-2.136-0.297-0.811-0.219-1.509-0.688-2.07-1.333-0.294-0.338-0.613-0.493-1.106-0.526-0.772-0.052-1.535-0.292-2.292-0.49-1.142-0.298-2.239-0.737-3.355-1.108-0.573-0.191-0.997-0.524-1.44-0.842-0.89-0.64-1.751-1.268-2.905-1.366-0.382-0.033-0.738-0.317-1.118-0.454-1.072-0.387-2.094-0.893-3.195-1.223-0.764-0.23-1.452-0.711-2.176-1.076-0.23-0.116-0.47-0.322-0.698-0.313-1.271 0.05-2.296-0.599-3.356-1.131-0.772-0.387-1.569-0.657-2.416-0.794-0.113-0.018-0.254 0.011-0.337-0.047-0.744-0.515-1.631-0.676-2.442-1.021-1.252-0.533-2.427-1.257-3.698-1.729-1.067-0.395-2.091-0.91-3.27-1.066-0.882-0.117-1.751-0.569-2.547-1.013-0.504-0.282-0.976-0.415-1.519-0.371-0.515 0.042-0.983-0.069-1.401-0.364-0.416-0.293-0.902-0.325-1.377-0.427-0.648-0.141-1.237-0.478-1.851-0.714-0.482-0.185-0.969-0.251-1.35-0.133-0.805 0.248-1.519 0.223-2.328-1e-3 -0.628-0.174-1.347-0.081-2.018-0.022-0.644 0.057-1.326-0.248-1.942 0.209-0.128 0.095-0.387 0.017-0.585 0.017-0.915 0-1.83 0.01-2.744-3e-3 -1.04-0.015-2 0.285-2.924 0.721-1.072 0.506-2.168 0.967-3.111 1.715-0.191 0.152-0.488 0.16-0.721 0.266-1.454 0.662-2.444 1.762-3.008 3.245-0.535 1.409-1.072 2.818-1.568 4.242-0.312 0.894-0.512 1.82-0.488 2.782 0.017 0.676 3e-3 1.352 3e-3 2.028" fill="#fff"/></g><g transform="translate(499.1 443.11)"><path d="m0 0c-0.13-0.593 0.137-1.156-0.187-1.668-0.297-0.468 0.17-1.083-0.306-1.552-0.12-0.117-0.043-0.462-0.014-0.696 0.101-0.793-0.25-1.474-0.528-2.167-0.205-0.51-0.576-0.929-0.691-1.506-0.115-0.571-0.687-0.789-1.183-0.949-0.65-0.21-1.263-0.445-1.758-0.94-0.363-0.363-0.804-0.528-1.339-0.514-0.843 0.022-1.691-0.033-2.379 0.598-0.076 0.069-0.223 0.146-0.3 0.118-0.627-0.229-1.03 0.256-1.461 0.508-0.556 0.327-1.028 0.801-1.516 1.235-0.266 0.236-0.486 0.513-0.905 0.421-0.096-0.021-0.246 0.016-0.315 0.084-0.765 0.758-1.565 1.48-2.043 2.486-0.169 0.355-0.189 0.654-0.045 0.975 0.466 1.038 0.953 2.068 1.426 3.103 0.259 0.568 0.512 1.139 0.758 1.712 0.602 1.404 1.706 2.35 2.985 3.061 0.635 0.353 1.139 1.009 1.974 0.992 0.124-3e-3 0.243 0.195 0.379 0.219 0.56 0.099 1.122 0.193 1.688 0.239 0.474 0.038 0.953-5e-3 1.429 0.01 0.81 0.027 1.545-0.273 2.313-0.443 1.175-0.259 1.485-1.189 1.702-2.043 0.273-1.072 0.228-2.224 0.316-3.283" fill="#fff"/></g><g transform="translate(726.54 464.32)"><path d="m0 0c-0.391-0.171-0.502-0.256-0.617-0.261-0.169-9e-3 -0.437-0.091-0.405 0.226 9e-3 0.09 0.179 0.219 0.285 0.229 0.145 0.013 0.3-0.071 0.737-0.194" fill="#fff"/></g></g></g></g></svg>
