<?xml version="1.0" encoding="UTF-8"?>
<!-- Created with Inkscape (http://www.inkscape.org/) -->
<svg width="672" height="672" version="1.1" viewBox="0 0 672 672" xml:space="preserve" xmlns="http://www.w3.org/2000/svg"><defs><clipPath id="clipPath470"><path d="m0 503.84h503.84v-503.78h-503.84z"/></clipPath></defs><g transform="matrix(1.3333 0 0 -1.3333 0 672)"><g clip-path="url(#clipPath470)"><path d="m251.92 503.84c-68.418 0-76.997-0.29-103.87-1.516-26.814-1.223-45.127-5.482-61.151-11.71-16.566-6.437-30.615-15.051-44.621-29.056-14.005-14.006-22.619-28.055-29.056-44.621-6.228-16.024-10.487-34.337-11.71-61.151-1.226-26.87-1.516-35.449-1.516-103.87 0-68.417 0.29-76.996 1.516-103.87 1.223-26.814 5.482-45.127 11.71-61.151 6.437-16.566 15.051-30.615 29.056-44.621 14.006-14.005 28.055-22.619 44.621-29.057 16.024-6.227 34.337-10.486 61.151-11.709 26.87-1.226 35.449-1.516 103.87-1.516 68.417 0 76.996 0.29 103.87 1.516 26.814 1.223 45.127 5.482 61.151 11.709 16.566 6.438 30.615 15.052 44.621 29.057 14.005 14.006 22.619 28.055 29.057 44.621 6.227 16.024 10.486 34.337 11.709 61.151 1.226 26.87 1.516 35.449 1.516 103.87 0 68.418-0.29 76.997-1.516 103.87-1.223 26.814-5.482 45.127-11.709 61.151-6.438 16.566-15.052 30.615-29.057 44.621-14.006 14.005-28.055 22.619-44.621 29.056-16.024 6.228-34.337 10.487-61.151 11.71-26.87 1.226-35.449 1.516-103.87 1.516zm0-45.391c67.265 0 75.233-0.257 101.8-1.469 24.562-1.12 37.901-5.224 46.778-8.674 11.759-4.57 20.151-10.029 28.966-18.845 8.816-8.815 14.275-17.207 18.845-28.966 3.45-8.877 7.554-22.216 8.674-46.778 1.212-26.564 1.469-34.532 1.469-101.8 0-67.265-0.257-75.233-1.469-101.8-1.12-24.562-5.224-37.901-8.674-46.778-4.57-11.759-10.029-20.151-18.845-28.966-8.815-8.816-17.207-14.275-28.966-18.845-8.877-3.45-22.216-7.554-46.778-8.674-26.56-1.212-34.527-1.469-101.8-1.469-67.271 0-75.237 0.257-101.8 1.469-24.562 1.12-37.901 5.224-46.778 8.674-11.759 4.57-20.151 10.029-28.966 18.845-8.815 8.815-14.275 17.207-18.845 28.966-3.45 8.877-7.554 22.216-8.674 46.778-1.212 26.564-1.469 34.532-1.469 101.8 0 67.266 0.257 75.234 1.469 101.8 1.12 24.562 5.224 37.901 8.674 46.778 4.57 11.759 10.029 20.151 18.845 28.966 8.815 8.816 17.207 14.275 28.966 18.845 8.877 3.45 22.216 7.554 46.778 8.674 26.564 1.212 34.532 1.469 101.8 1.469" fill="#100f0d"/></g><path d="m251.92 167.95c-46.378 0-83.974 37.596-83.974 83.973 0 46.378 37.596 83.974 83.974 83.974 46.377 0 83.973-37.596 83.973-83.974 0-46.377-37.596-83.973-83.973-83.973zm0 213.34c-71.447 0-129.36-57.918-129.36-129.36 0-71.446 57.918-129.36 129.36-129.36 71.446 0 129.36 57.918 129.36 129.36 0 71.447-57.918 129.36-129.36 129.36" fill="#100f0d"/><path d="m416.63 386.4c0-16.696-13.535-30.23-30.231-30.23-16.695 0-30.23 13.534-30.23 30.23s13.535 30.231 30.23 30.231c16.696 0 30.231-13.535 30.231-30.231" fill="#100f0d"/></g></svg>
